<svg id="vector" xmlns="http://www.w3.org/2000/svg" width="200" height="161.2367" viewBox="0 0 883 711.86"><defs><linearGradient gradientUnits="userSpaceOnUse" x2="441.5" y2="536.39" x1="441.5" y1="709.45" id="gradient_0"><stop stop-color="#8080803F" offset="0"/><stop stop-color="#8080801E" offset="0.54"/><stop stop-color="#80808019" offset="1"/></linearGradient><linearGradient gradientUnits="userSpaceOnUse" x2="743.84283" y2="406.82635" x1="743.7548" y1="445.61624" id="gradient_1"><stop stop-color="#0000001E" offset="0"/><stop stop-color="#00000016" offset="0.55"/><stop stop-color="#00000005" offset="1"/></linearGradient></defs><path fill="#f2f2f2" d="M646.3,24.91L827.24,24.91A9.96,9.96 0,0 1,837.2 34.87L837.2,36.64A9.96,9.96 0,0 1,827.24 46.6L646.3,46.6A9.96,9.96 0,0 1,636.34 36.64L636.34,34.87A9.96,9.96 0,0 1,646.3 24.91z" id="path_0"/><path fill="#f2f2f2" d="M691.29,43.39L872.23,43.39A9.96,9.96 0,0 1,882.19 53.35L882.19,55.12A9.96,9.96 0,0 1,872.23 65.08L691.29,65.08A9.96,9.96 0,0 1,681.33 55.12L681.33,53.35A9.96,9.96 0,0 1,691.29 43.39z" id="path_1"/><path fill="#f2f2f2" d="M614.96,59.46L795.9,59.46A9.96,9.96 0,0 1,805.86 69.42L805.86,71.19A9.96,9.96 0,0 1,795.9 81.15L614.96,81.15A9.96,9.96 0,0 1,605 71.19L605,69.42A9.96,9.96 0,0 1,614.96 59.46z" id="path_2"/><path fill="#f2f2f2" d="M302.42,273.18L483.36,273.18A9.96,9.96 0,0 1,493.32 283.14L493.32,284.91A9.96,9.96 0,0 1,483.36 294.87L302.42,294.87A9.96,9.96 0,0 1,292.46 284.91L292.46,283.14A9.96,9.96 0,0 1,302.42 273.18z" id="path_3"/><path fill="#f2f2f2" d="M347.41,291.66L528.35,291.66A9.96,9.96 0,0 1,538.31 301.62L538.31,303.39A9.96,9.96 0,0 1,528.35 313.35L347.41,313.35A9.96,9.96 0,0 1,337.45 303.39L337.45,301.62A9.96,9.96 0,0 1,347.41 291.66z" id="path_4"/><path fill="#f2f2f2" d="M271.08,307.72L452.02,307.72A9.96,9.96 0,0 1,461.98 317.68L461.98,319.45A9.96,9.96 0,0 1,452.02 329.41L271.08,329.41A9.96,9.96 0,0 1,261.12 319.45L261.12,317.68A9.96,9.96 0,0 1,271.08 307.72z" id="path_5"/><path fill="url(#gradient_0)" fill-opacity="0.5" d="M852.5,686.15c-4.82,0 -115.7,48.21 -244.25,-78.74 -69.81,-68.93 -138.19,-76.27 -186.11,-68.58C392.69,543.55 365.8,557.93 344.5,578.76c-17.13,16.82 -58.59,39.74 -155.73,33.48 -149.44,-9.64 -188.81,97.22 -188.81,97.22h883S857.29,686.15 852.5,686.15Z" stroke-opacity="0.5" id="path_6"/><path fill="#f2f2f2" d="M0,711.86s39.37,-106.86 188.81,-97.22C285.95,620.93 327.42,597.98 344.5,581.17c21.26,-20.87 48.14,-35.21 77.56,-39.93 47.92,-7.69 116.31,-0.35 186.11,68.58 128.55,126.95 239.43,78.74 244.25,78.74s30.53,23.3 30.53,23.3Z" id="path_7"/><path fill="#000000FF" fill-opacity="0.02" d="M0,711.86s39.37,-106.86 188.81,-97.22C285.95,620.93 327.42,597.98 344.5,581.17c21.26,-20.87 48.14,-35.21 77.56,-39.93 47.92,-7.69 116.31,-0.35 186.11,68.58 128.55,126.95 239.43,78.74 244.25,78.74s30.53,23.3 30.53,23.3Z" stroke-opacity="0.02" id="path_8"/><path fill="#f2f2f2" d="M101.55,123.73L282.49,123.73A9.96,9.96 0,0 1,292.45 133.69L292.45,135.46A9.96,9.96 0,0 1,282.49 145.42L101.55,145.42A9.96,9.96 0,0 1,91.59 135.46L91.59,133.69A9.96,9.96 0,0 1,101.55 123.73z" id="path_9"/><path fill="#f2f2f2" d="M146.55,142.21L327.49,142.21A9.96,9.96 0,0 1,337.45 152.17L337.45,153.94A9.96,9.96 0,0 1,327.49 163.9L146.55,163.9A9.96,9.96 0,0 1,136.59 153.94L136.59,152.17A9.96,9.96 0,0 1,146.55 142.21z" id="path_10"/><path fill="#f2f2f2" d="M70.22,158.28L251.16,158.28A9.96,9.96 0,0 1,261.12 168.24L261.12,170.01A9.96,9.96 0,0 1,251.16 179.97L70.22,179.97A9.96,9.96 0,0 1,60.26 170.01L60.26,168.24A9.96,9.96 0,0 1,70.22 158.28z" id="path_11"/><path fill="none" fill-opacity="0.5" d="M199.26,81.15m-81.15,0a81.15,81.15 0,1 1,162.3 0a81.15,81.15 0,1 1,-162.3 0" stroke-opacity="0.5" id="path_12"/><path fill="#fccc63" d="M199.26,81.15m-72.31,0a72.31,72.31 0,1 1,144.62 0a72.31,72.31 0,1 1,-144.62 0" id="path_13"/><path fill="#0b6138" d="M160.98,590.63h62.9v46.73h-62.9z" id="path_14"/><path fill="#0b6138" d="M155.5,588.73l35.15,-35.15a2.74,2.74 0,0 1,3.88 0l34.87,34.87a2.74,2.74 0,0 1,-1.93 4.68l-70,0.28A2.74,2.74 0,0 1,155.5 588.73Z" id="path_15"/><path fill="#000000FF" fill-opacity="0.05" d="M155.5,588.73l35.15,-35.15a2.74,2.74 0,0 1,3.88 0l34.87,34.87a2.74,2.74 0,0 1,-1.93 4.68l-70,0.28A2.74,2.74 0,0 1,155.5 588.73Z" stroke-opacity="0.05" id="path_16"/><path fill="#fff" d="M191.62,616.28h1.26a7.1,7.1 0,0 1,7.1 7.1v14a0,0 0,0 1,0 0H184.52a0,0 0,0 1,0 0v-14A7.1,7.1 0,0 1,191.62 616.28Z" id="path_17"/><path fill="#fff" d="M192.6,562.17m-3.87,0a3.87,3.87 0,1 1,7.74 0a3.87,3.87 0,1 1,-7.74 0" id="path_18"/><path fill="#fff" d="M165.9,596.6h14.76v11.24h-14.76z" id="path_19"/><path fill="#0b6138" d="M172.57,596.6h1.41v11.24h-1.41z" id="path_20"/><path fill="#fff" d="M205.25,596.6h14.76v11.24h-14.76z" id="path_21"/><path fill="#0b6138" d="M211.93,596.6h1.41v11.24h-1.41z" id="path_22"/><path fill="none" fill-opacity="0.2" d="M452.5,541.15v0C452.37,541.12 452.5,541.15 452.5,541.15Z" stroke-opacity="0.2" id="path_23"/><path fill="none" fill-opacity="0.2" d="M453.95,570.19h0.12a0.14,0.14 0,0 0,0.09 -0.12,0.32 0.32,0 0,0 0,-0.12l0,-0.1c-0.1,-0.24 -0.33,-0.56 -0.46,-0.84l-0.06,-0.15a1.15,1.15 0,0 1,0 -0.2s0,-0.06 0,-0.09l2.16,-7.09h0l0.05,-0.17s2.75,1.18 3.46,3.54a5.54,5.54 0,0 1,0.06 3.55h0v0l-0.05,0.12h0.05v1.3h3c0.21,-0.1 -0.07,-0.36 -0.35,-0.62l-0.07,-0.07 -0.18,-0.19h0a0.94,0.94 0,0 1,-0.13 -0.19l-0.05,-0.12 0,-0.07L461.5,568.56l0,-0.11a10.21,10.21 0,0 0,-3.06 -9.66v0a10.46,10.46 0,0 0,0 -6.65c0.28,-0.2 5.73,-4.14 5.69,-9.24a7,7 0,0 0,0 -0.82s0.47,-0.39 0,-1.1l0,-0.06v0l0,0 0,0 0,0 0,0 0,0 0,0 0,0h0l0,0h0l0,0h0l-0.05,0h-0.33a1.48,1.48 0,0 0,-0.61 0.2s-0.31,1 0,1.26h-0.08s-3.23,7 -5.39,8l-0.15,-0.09v-0.91a1.1,1.1 0,0 0,0 -0.12h0a1.09,1.09 0,0 0,0 -0.11,2.45 2.45,0 0,0 0.65,-0.49h0a2.45,2.45 0,0 0,0.2 -0.24h0l0.08,-0.12h0l0.08,-0.14h0l0.06,-0.13v0a2.42,2.42 0,0 0,0.11 -0.29v0l0,-0.12v0l0,-0.15v0s0,-0.08 0,-0.12v0c0,-0.05 0,-0.1 0,-0.16a2.43,2.43 0,0 0,-0.15 -0.84q0,-0.11 -0.09,-0.22l-0.05,-0.11 -0.07,-0.12a0.8,0.8 0,0 1,0.19 -0.17,1.13 1.13,0 0,1 0.45,-0.14h0.39l0.08,0a0.7,0.7 0,0 0,0.16 -0.09,0.73 0.73,0 0,1 0.26,-0.14h-0.59l-0.09,0 -0.08,0 -0.09,0 -0.08,0 -0.08,0 -0.08,0 -0.08,0 -0.08,0h0l-0.16,-0.07a0.86,0.86 0,0 0,0.26 0.06h0.34l0.06,0 0,0 0,0 0,0 0,0 0,0 0,0 0,0 0,0 0.06,-0.05 0,0 0,0 0,0 0,0 0,0 0,0v0l0,-0.08 -0.11,0 -0.07,0h0a1.52,1.52 0,0 1,-0.41 0l-0.29,0h0l-0.13,0h0l-0.12,-0.05h0A0.46,0.46 0,0 0,458.5 543.93l0.11,-0.07a0.58,0.58 0,0 0,0.2 -0.39,0.44 0.44,0 0,0 0,-0.19l-0.07,0.06 -0.06,0a1,1 0,0 1,-0.65 0.18h-0.08a3,3 0,0 1,-0.59 -0.22l-0.17,-0.06 -0.05,0 -0.14,0 -0.08,0 -0.11,0h-0.53a3.05,3.05 0,0 0,-2 0.84,3 3,0 0,0 -0.34,0.4 3.92,3.92 0,0 1,0.39 -2.13l-0.06,0 0,0 -0.18,0 -0.09,0.17a2,2 0,0 1,0.27 -0.68l-0.06,0a0.81,0.81 0,0 0,0 -1.08c-0.47,-0.71 -1.34,-0.16 -1.34,-0.16a3.64,3.64 0,0 0,-0.14 0.71l-0.14,-0.06c-0.16,0.54 -1.94,6.74 1,10.7a2.47,2.47 0,0 0,0 0.25v6.68l-2,9.16h0v0h0l-0.39,1.73 2.81,0.46ZM454.45,548.54a2.44,2.44 0,0 0,0.52 0.33,1.09 1.09,0 0,0 0,0.19L454.97,549.93l-0.17,0.08C454.67,549.58 454.56,549.08 454.44,548.54Z" stroke-opacity="0.2" id="path_24"/><path fill="#ca7070" d="M464.16,542.86s0.52,-0.44 0,-1.22 -1.48,-0.17 -1.48,-0.17 -0.35,1.13 0,1.39S464.16,542.86 464.16,542.86Z" id="path_25"/><path fill="#00695c" d="M458.78,572.02h2.4a0.79,0.79 0,0 0,0.23 0.62c0.32,0.37 1,0.82 0.67,1h-3.3Z" id="path_26"/><path fill="#fff" fill-opacity="0.2" d="M461.23,572.64a0.79,0.79 0,0 1,-0.23 -0.62h0.17a0.79,0.79 0,0 0,0.23 0.62c0.32,0.37 1,0.82 0.67,1h-0.17C462.2,573.46 461.55,573.01 461.23,572.64Z" stroke-opacity="0.2" id="path_27"/><path fill="#00695c" d="M450.22,571.53 L452.5,571.93a1.15,1.15 0,0 0,0.1 0.79c0.25,0.51 0.8,1.17 0.47,1.31l-3.25,-0.53Z" id="path_28"/><path fill="#00695c" d="M451.32,541.8s-2.57,8.11 1.74,12.6l1.25,-1s-2.55,-8.85 -1.12,-10.93C450.67,541.68 451.32,541.8 451.32,541.8Z" id="path_29"/><path fill="#ca7070" d="M453.1,542.51s0.52,-0.44 0,-1.22 -1.48,-0.17 -1.48,-0.17 -0.35,1.13 0,1.39S453.1,542.51 453.1,542.51Z" id="path_30"/><path fill="#fff" fill-opacity="0.2" d="M452.4,572.68a1.15,1.15 0,0 1,-0.1 -0.79l-2.08,-0.34v0L452.5,571.93a1.15,1.15 0,0 0,0.1 0.79c0.25,0.51 0.8,1.17 0.47,1.31l-0.14,0C453.15,573.79 452.64,573.17 452.4,572.68Z" stroke-opacity="0.2" id="path_31"/><path fill="#ca7070" d="M455.34,552.97L455.14,552.97A1.12,1.12 0,0 1,454.02 551.85L454.02,550.47A1.12,1.12 0,0 1,455.14 549.35L455.34,549.35A1.12,1.12 0,0 1,456.46 550.47L456.46,551.85A1.12,1.12 0,0 1,455.34 552.97z" id="path_32"/><path fill="#fff" fill-opacity="0.2" d="M454.13,553.93s-2.52,-8.74 -1.15,-10.89l0.2,0 0,0 0.06,0c-1.43,2.08 1.12,10.93 1.12,10.93l-1.25,1 -0.11,-0.12Z" stroke-opacity="0.2" id="path_33"/><path fill="#ca7070" d="M455.19,547.92m-2.7,0a2.7,2.7 0,1 1,5.4 0a2.7,2.7 0,1 1,-5.4 0" id="path_34"/><path fill="#fff" fill-opacity="0.2" d="M456.15,551.75v-1.18a1.21,1.21 0,0 0,0 -0.26,2.7 2.7,0 0,0 -1.08,-5.1h0.15a2.7,2.7 0,0 1,1.24 5.1,1.21 1.21,0 0,1 0,0.26v1.18a1.22,1.22 0,0 1,-1.22 1.22h-0.15A1.22,1.22 0,0 0,456.15 551.75Z" stroke-opacity="0.2" id="path_35"/><path fill="#00695c" d="M452.45,561.38s5.21,0.59 5.4,0a11.52,11.52 0,0 0,0 -7.41,2.7 2.7,0 0,0 -2.7,-2.7h0a2.7,2.7 0,0 0,-2.7 2.7Z" id="path_36"/><path fill="#263238" d="M452.45,561.38l-2.35,10.8h2.35l2.44,-8s3,1.31 3.83,3.92a5.73,5.73 0,0 1,0 4.09h2.53l0,-0.12a11.23,11.23 0,0 0,-3.42 -10.69h0" id="path_37"/><path fill="#fff" fill-opacity="0.2" d="M457.5,561.38a11.52,11.52 0,0 0,0 -7.41,2.7 2.7,0 0,0 -2.53,-2.69h0.17a2.7,2.7 0,0 1,2.7 2.7,11.52 11.52,0 0,1 0,7.41c-0.07,0.21 -0.78,0.27 -1.67,0.26C456.94,561.63 457.5,561.56 457.5,561.38Z" stroke-opacity="0.2" id="path_38"/><path fill="#00695c" d="M457.89,553.93s7,-4.88 6.27,-11.06L462.6,542.87s-3.75,8.1 -6.14,8.89S457.89,553.93 457.89,553.93Z" id="path_39"/><path fill="#fff" fill-opacity="0.2" d="M454.84,564.35l-2.39,7.87h-0.35l2.44,-8Z" stroke-opacity="0.2" id="path_40"/><path fill="#fff" fill-opacity="0.2" d="M457.5,561.42h0.35a11.23,11.23 0,0 1,3.42 10.69l0,0.12h-0.35l0,-0.12A11.23,11.23 0,0 0,457.5 561.42Z" stroke-opacity="0.2" id="path_41"/><path fill="#fff" fill-opacity="0.2" d="M463.9,542.93h0.26c0.7,6.19 -6.27,11.06 -6.27,11.06l-0.17,-0.07C458.5,553.35 464.55,548.72 463.9,542.93Z" stroke-opacity="0.2" id="path_42"/><path fill="#263238" d="M457.34,546.71a4.47,4.47 0,0 0,-0.31 1.09,2.92 2.92,0 0,1 -1.24,1.9 2.74,2.74 0,0 1,-1.21 0.33,2.31 2.31,0 0,1 -1.79,-0.54 2.22,2.22 0,0 1,-0.55 -1.1,3.74 3.74,0 0,1 1,-3.44 3.32,3.32 0,0 1,3.45 -0.73,3.3 3.3,0 0,0 0.66,0.24 1.09,1.09 0,0 0,1 -0.32,0.6 0.6,0 0,1 -0.58,0.78 1.68,1.68 0,0 0,1.29 0.07,1.09 1.09,0 0,1 -1.38,0.55 3.69,3.69 0,0 0,1.56 0.32c-0.11,0 -0.33,0.21 -0.47,0.25a3,3 0,0 1,-0.52 0A1,1 0,0 0,457.34 546.71Z" id="path_43"/><path fill="#fff" fill-opacity="0.2" d="M457.7,544.93a1.67,1.67 0,0 0,0.64 0.16A1.68,1.68 0,0 1,457.5 544.93a0.61,0.61 0,0 0,0.61 -0.66l0.14,-0.12A0.6,0.6 0,0 1,457.7 544.93Z" stroke-opacity="0.2" id="path_44"/><path fill="#fff" fill-opacity="0.2" d="M457.16,544.46a3.3,3.3 0,0 1,-0.66 -0.24,3 3,0 0,0 -1,-0.21 3,3 0,0 1,1.21 0.21,3.3 3.3,0 0,0 0.66,0.24h0.09A1,1 0,0 1,457.16 544.46Z" stroke-opacity="0.2" id="path_45"/><path fill="#fff" fill-opacity="0.2" d="M458.5,546.11c0.14,0 0.36,-0.25 0.47,-0.25a3.69,3.69 0,0 1,-1.56 -0.32,1 1,0 0,0 0.35,0.07 3.69,3.69 0,0 0,1.39 0.24c-0.11,0 -0.33,0.21 -0.47,0.25a1.16,1.16 0,0 1,-0.36 0Z" stroke-opacity="0.2" id="path_46"/><path fill="#fff" fill-opacity="0.2" d="M454.4,550.03a2.74,2.74 0,0 0,1.21 -0.33,2.92 2.92,0 0,0 1.24,-1.9 4.47,4.47 0,0 1,0.31 -1.09,1 1,0 0,1 0.85,-0.56h0.17a1,1 0,0 0,-0.85 0.56,4.47 4.47,0 0,0 -0.31,1.09 2.92,2.92 0,0 1,-1.24 1.9,2.74 2.74,0 0,1 -1.21,0.33h-0.17Z" stroke-opacity="0.2" id="path_47"/><path fill="#fff" fill-opacity="0.2" d="M457.91,545.62a1.1,1.1 0,0 0,0.89 -0.57l0.2,-0.06A1.1,1.1 0,0 1,457.91 545.62Z" stroke-opacity="0.2" id="path_48"/><path fill="#fff" fill-opacity="0.2" d="M463.99,542.86s0.52,-0.44 0,-1.22a0.83,0.83 0,0 0,-0.65 -0.4,0.85 0.85,0 0,1 0.82,0.4c0.52,0.78 0,1.22 0,1.22a4.72,4.72 0,0 1,-1 0.11A5.16,5.16 0,0 0,463.99 542.86Z" stroke-opacity="0.2" id="path_49"/><path fill="#ff5252" d="M475.91,533.15s-2.57,8.11 1.74,12.6l1.25,-1s-2.55,-8.85 -1.12,-10.93C475.26,533.03 475.91,533.15 475.91,533.15Z" id="path_50"/><path fill="#f6b9ad" d="M477.69,533.87s0.52,-0.44 0,-1.22 -1.48,-0.17 -1.48,-0.17 -0.35,1.13 0,1.39S477.69,533.87 477.69,533.87Z" id="path_51"/><path fill="#f6b9ad" d="M479.93,544.33L479.73,544.33A1.12,1.12 0,0 1,478.61 543.21L478.61,541.83A1.12,1.12 0,0 1,479.73 540.71L479.93,540.71A1.12,1.12 0,0 1,481.05 541.83L481.05,543.21A1.12,1.12 0,0 1,479.93 544.33z" id="path_52"/><path fill="#fff" fill-opacity="0.2" d="M478.72,545.32s-2.52,-8.74 -1.15,-10.89l0.2,0 0,0 0.06,0c-1.43,2.08 1.12,10.93 1.12,10.93l-1.25,1 -0.11,-0.12Z" stroke-opacity="0.2" id="path_53"/><path fill="#f6b9ad" d="M479.78,539.27m-2.7,0a2.7,2.7 0,1 1,5.4 0a2.7,2.7 0,1 1,-5.4 0" id="path_54"/><path fill="#fff" fill-opacity="0.2" d="M480.74,543.1L480.74,541.93a1.21,1.21 0,0 0,0 -0.26,2.7 2.7,0 0,0 -1.08,-5.1h0.15a2.7,2.7 0,0 1,1.24 5.1,1.21 1.21,0 0,1 0,0.26v1.18a1.22,1.22 0,0 1,-1.22 1.22h-0.15A1.22,1.22 0,0 0,480.74 543.1Z" stroke-opacity="0.2" id="path_55"/><path fill="#ff5252" d="M477.04,552.73s5.21,0.59 5.4,0c0.62,-1.9 -1,-4 -0.21,-5a2.47,2.47 0,0 0,0.21 -2.44,2.7 2.7,0 0,0 -2.7,-2.7h0a2.7,2.7 0,0 0,-2.7 2.7Z" id="path_56"/><path fill="#fff" fill-opacity="0.2" d="M482.24,547.77a2.47,2.47 0,0 0,0.21 -2.44,2.7 2.7,0 0,0 -2.7,-2.7h-0.17a2.7,2.7 0,0 1,2.53 2.69,2.47 2.47,0 0,1 -0.21,2.44c-0.84,1 0.83,3.06 0.21,5 -0.06,0.18 -0.6,0.25 -1.31,0.26 0.88,0 1.59,-0.05 1.66,-0.26C483.07,550.83 481.4,548.77 482.24,547.77Z" stroke-opacity="0.2" id="path_57"/><path fill="#f6b9ad" d="M481.33,552.56h0a15.46,15.46 0,0 1,2.2 10.69l0,0.12h-1.62a8.7,8.7 0,0 0,0 -4.09,6.46 6.46,0 0,0 -2.46,-3.92l-1.57,8h-1.51l1.51,-10.8Z" id="path_58"/><path fill="#f6b9ad" d="M490.5,537.02s0.63,-0.26 0.36,-1.17 -1.36,-0.6 -1.36,-0.6 -0.67,1 -0.41,1.33S490.5,537.02 490.5,537.02Z" id="path_59"/><path fill="#ff5252" d="M481.25,545.76s8.09,-2.62 9.24,-8.74l-1.5,-0.46s-6,6.65 -8.48,6.7S481.25,545.76 481.25,545.76Z" id="path_60"/><path fill="#fff" fill-opacity="0.2" d="M490.21,537.03l0.25,0.08c-1.15,6.12 -9.24,8.74 -9.24,8.74l-0.14,-0.11C482.03,545.4 489.14,542.74 490.21,537.03Z" stroke-opacity="0.2" id="path_61"/><path fill="#fff" fill-opacity="0.2" d="M479.08,555.35l-1.57,8h0.35l1.52,-7.78A3.74,3.74 0,0 0,479.08 555.35Z" stroke-opacity="0.2" id="path_62"/><path fill="#fff" fill-opacity="0.2" d="M481.33,552.56h-0.35a15.46,15.46 0,0 1,2.2 10.69l0,0.12L483.5,563.37l0,-0.12A15.46,15.46 0,0 0,481.33 552.56Z" stroke-opacity="0.2" id="path_63"/><path fill="#fff" fill-opacity="0.2" d="M490.32,536.93s0.63,-0.26 0.36,-1.17a0.83,0.83 0,0 0,-0.5 -0.57,0.85 0.85,0 0,1 0.67,0.62c0.27,0.9 -0.36,1.17 -0.36,1.17a4.72,4.72 0,0 1,-1 -0.19A5.16,5.16 0,0 0,490.32 536.93Z" stroke-opacity="0.2" id="path_64"/><path fill="#263238" d="M477.04,552.44l-3.28,6.92a40.62,40.62 0,0 1,5.71 0.69c3.63,0.69 5.36,-1 5.36,-1L482.5,552.44Z" id="path_65"/><path fill="#ff5252" d="M477.91,563.33s1.73,0.35 1.38,1h-3.11l0.17,-1Z" id="path_66"/><path fill="#ff5252" d="M483.44,563.33s1.73,0.35 1.38,1h-3.11l0.17,-1Z" id="path_67"/><path fill="#fccc63" d="M482.23,537.05s-4.15,5.88 -2.25,8.3l-7.43,-0.17S474.62,531.86 482.23,537.05Z" id="path_68"/><path fill="#fff" fill-opacity="0.2" d="M482.23,537.05a6.31,6.31 0,0 0,-2.9 -1.18,7.32 7.32,0 0,1 2,1s-4.15,5.88 -2.25,8.3l-6.54,-0.15 0,0.15 7.43,0.17C478.08,542.93 482.23,537.05 482.23,537.05Z" stroke-opacity="0.2" id="path_69"/><path fill="#fff" fill-opacity="0.2" d="M482.5,552.44h-0.52l2.34,6.57a5.28,5.28 0,0 1,-3.44 1.2,5.5 5.5,0 0,0 4,-1.2Z" stroke-opacity="0.2" id="path_70"/><path fill="#fff" fill-opacity="0.2" d="M477.91,563.33h-0.35s1.73,0.35 1.38,1h0.35C479.64,563.67 477.91,563.33 477.91,563.33Z" stroke-opacity="0.2" id="path_71"/><path fill="#fff" fill-opacity="0.2" d="M483.44,563.33h-0.35s1.73,0.35 1.38,1h0.35C485.17,563.67 483.44,563.33 483.44,563.33Z" stroke-opacity="0.2" id="path_72"/><path fill="#00000000" d="M725.52,400.93l-9.64,-53.84l30.53,-1.49l0,55.33l20.89,0l20.89,-59.46" stroke-width="1" stroke="#b3b3b3" id="path_73"/><path fill="#0b6138" d="M731.93,395.3L760.89,395.3A27.3,27.3 0,0 1,788.19 422.6L788.19,427.46A27.3,27.3 0,0 1,760.89 454.76L731.93,454.76A27.3,27.3 0,0 1,704.63 427.46L704.63,422.6A27.3,27.3 0,0 1,731.93 395.3z" id="path_74"/><path fill="#000000FF" fill-opacity="0.05" d="M759.27,395.3h-24.1a29.82,29.82 0,0 0,-29.73 29.73h0c0,0.68 0,1.34 0.08,2a29.82,29.82 0,0 1,29.65 -27.72h24.1a29.82,29.82 0,0 1,29.65 27.72c0,-0.66 0.08,-1.33 0.08,-2h0A29.82,29.82 0,0 0,759.27 395.3Z" stroke-opacity="0.05" id="path_75"/><path fill="url(#gradient_1)" d="M765.66,413.01l-7.89,-6.19l-19.08,24.17l-10.26,-7.95l-6.42,8.16l14.92,11.4l0,0l3.7,2.97l25.03,-32.56z" id="path_76"/><path fill="#69f0ae" d="M765.08,412.86l-7.16,-5.48l-18.95,24.72l-10.53,-8.08l-5.49,7.16l14.11,10.8l0,0l3.62,2.71l24.4,-31.83z" id="path_77"/><path fill="none" d="M873.17,234.39c0,68.66 -57.36,124.32 -118.43,124.32S631.08,303.05 631.08,234.39s62.59,-124.32 123.67,-124.32S873.17,165.73 873.17,234.39Z" id="path_78"/><path fill="#0b6138" d="M867.5,234.39c0,65.45 -54.67,118.5 -112.89,118.5s-117.88,-53.05 -117.88,-118.5S696.41,115.93 754.62,115.93 867.5,168.93 867.5,234.39Z" id="path_79"/><path fill="#0b6138" d="M736.53,357.05h26.19v9.15h-26.19z" id="path_80"/><path fill="#000000FF" fill-opacity="0.2" d="M754.62,115.48c-1.39,0 -2.77,0 -4.16,0.1 56.63,2.45 108.73,54.51 108.73,118.4S807.09,349.93 750.5,352.38c1.39,0.06 2.78,0.1 4.16,0.1 58.21,0 112.89,-53.05 112.89,-118.5S812.83,115.48 754.62,115.48Z" stroke-opacity="0.2" id="path_81"/><path fill="#fff" fill-opacity="0.2" d="M643.4,234.39c0,-64.51 58,-117 115.38,-118.46 -0.83,0 -1.66,0 -2.49,0 -58.21,0 -117.88,53.05 -117.88,118.5S698.07,352.93 756.28,352.93c0.83,0 1.66,0 2.49,0C701.37,351.37 643.4,298.93 643.4,234.39Z" stroke-opacity="0.2" id="path_82"/><path fill="#0b6138" d="M713.25,336.26h75.26v24.53h-75.26z" id="path_83"/><path fill="#fff" fill-opacity="0.2" d="M713.25,124.52s-89.39,102.18 0,219.74l29.52,-0.1s-81.49,-97.12 -3.74,-227L724.5,120.47Z" stroke-opacity="0.2" id="path_84"/><path fill="#fff" fill-opacity="0.2" d="M791,122.93s89.39,103.74 0,221.3l-29.52,-0.1s81.49,-98 3.74,-227.85l14.55,2.91Z" stroke-opacity="0.2" id="path_85"/></svg>