<svg xmlns="http://www.w3.org/2000/svg" version="1.1" xmlns:xlink="http://www.w3.org/1999/xlink" xmlns:svgjs="http://svgjs.com/svgjs" width="108" height="108"><svg id="SvgjsSvg1000" xmlns="http://www.w3.org/2000/svg" viewBox="0 0 108 108"><defs><style>.cls-1{fill:#354254;}</style></defs><path class="cls-1" d="M63.59,33.39c-9.86-5.44-10.5-7.64-11.26-10.28l-.07-.44-3.83,.52,7.02,40.73c-2.55-.64-5.83-.11-9.23,1.37-5.67,2.46-9.13,8.7-7.33,12.65,1.81,3.95,7.83,5.07,13.44,2.5,5.26-2.4,8.59-7.24,7.81-11.47h0s-5.64-32.8-5.64-32.8c1.12-.2,2.61-.33,3.64-.23,3.55,.35,6.69,1.97,8.79,4.85,5.26,7.2,1.84,17.12,1.84,17.12l1.51-.54c2.75-4.05,3.78-18.19-6.69-23.97Z"></path><path class="cls-1" d="M28.71,37.16c-5.48-1.11-6.11-2.06-6.87-3.2l-.1-.2-1.74,.81,9.38,18.26c-1.3,.07-2.78,.82-4.17,2.02-2.32,2.01-3.03,5.48-1.59,7.08,1.44,1.6,4.46,1.24,6.74-.82,2.13-1.92,3-4.71,1.99-6.6h0s-7.55-14.71-7.55-14.71c.5-.26,1.19-.55,1.69-.65,1.73-.36,3.46-.06,4.89,.99,3.56,2.63,3.42,7.84,3.42,7.84l.64-.48c.7-2.33-.91-9.18-6.74-10.37Z"></path><path class="cls-1" d="M86.42,66.29c-3.37-4.47-3.21-5.6-3.02-6.95l.06-.22-1.84-.54-5.1,19.89c-1.03-.81-2.62-1.23-4.46-1.25-3.07-.03-5.91,2.09-5.89,4.25,.02,2.16,2.52,3.89,5.59,3.86,2.87-.02,5.36-1.54,5.87-3.62h0s4.11-16.02,4.11-16.02c.55,.13,1.25,.38,1.7,.64,1.54,.88,2.63,2.25,3,3.98,.92,4.33-2.64,8.13-2.64,8.13l.79,.06c2.07-1.28,5.41-7.48,1.84-12.22Z"></path></svg><style>@media (prefers-color-scheme: light) { :root { filter: contrast(1) brightness(1); } }
@media (prefers-color-scheme: dark) { :root { filter: invert(100%); } }
</style></svg>